<svg xmlns="http://www.w3.org/2000/svg" width="20" height="20" viewBox="0 0 20 20">
  <path id="Path_18" data-name="Path 18" d="M20.8,4.936H17.51V3.883a3.949,3.949,0,0,0-7.9,0V4.936H6.779a.429.429,0,0,0-.433.426L3.914,19.574A.429.429,0,0,0,4.347,20H23.481a.429.429,0,0,0,.433-.426L21.231,5.362A.429.429,0,0,0,20.8,4.936ZM10.477,3.883a3.084,3.084,0,0,1,6.167,0V4.936H10.477ZM23.049,19.149H4.779L7.211,5.787h2.4V7.661a.761.761,0,0,0-.346.637.779.779,0,0,0,1.558,0,.762.762,0,0,0-.346-.637V5.787h6.168V7.661A.761.761,0,0,0,16.3,8.3a.779.779,0,0,0,1.558,0,.762.762,0,0,0-.346-.637V5.787h2.856Z" transform="translate(-3.914)" fill="#fffcfc"/>
</svg>
