<svg xmlns="http://www.w3.org/2000/svg" width="26" height="28" viewBox="0 0 26 28">
  <g id="ghost" transform="translate(-57.074 -24)">
    <g id="Group_2" data-name="Group 2" transform="translate(57.074 24)">
      <g id="Group_1" data-name="Group 1">
        <path id="Path_12" data-name="Path 12" d="M72.018,26.012C69.778,21.674,68.44,15.424,68.44,9.293a8.793,8.793,0,0,0-3.023-6.559,11.079,11.079,0,0,0-14.573,0A8.793,8.793,0,0,0,47.82,9.293c0,.005,0,.01,0,.015a27.976,27.976,0,0,1-.971,9.055,19.266,19.266,0,0,0-.54,8.592.559.559,0,0,0,.371.442,8.093,8.093,0,0,0,2.846.6,6.385,6.385,0,0,0,2.49-.565,6.045,6.045,0,0,1,1.78-.483c.05,0,.1-.006.159-.006a7.787,7.787,0,0,1,2.118.484A9.075,9.075,0,0,0,58.72,28c.1,0,.207,0,.305-.013a8.237,8.237,0,0,0,2.212-.612,6.038,6.038,0,0,1,1.872-.508,8.856,8.856,0,0,1,3.125.508,6.668,6.668,0,0,0,2.08.405h0a7.336,7.336,0,0,0,3.462-1.073A.514.514,0,0,0,72.018,26.012Zm-3.7.674h0a5.451,5.451,0,0,1-1.668-.343,10.289,10.289,0,0,0-3.562-.571,7.076,7.076,0,0,0-2.336.6,7.147,7.147,0,0,1-1.841.528c-.059.005-.122.008-.187.008a8.162,8.162,0,0,1-2.227-.5,8.8,8.8,0,0,0-2.538-.549c-.093,0-.184,0-.273.011a7.337,7.337,0,0,0-2.164.571,5.124,5.124,0,0,1-1.991.472,6.3,6.3,0,0,1-2.026-.394,18.245,18.245,0,0,1,.556-7.908,28.815,28.815,0,0,0,1-9.319c0-4.518,4.072-8.192,9.072-8.192S67.2,4.772,67.2,9.293a44.955,44.955,0,0,0,.942,9.127,32.568,32.568,0,0,0,2.52,7.593A5.5,5.5,0,0,1,68.314,26.686Z" transform="translate(-46.074)" fill="#fff"/>
      </g>
    </g>
    <g id="Group_4" data-name="Group 4" transform="translate(63.131 30.234)">
      <g id="Group_3" data-name="Group 3">
        <path id="Path_13" data-name="Path 13" d="M134.256,125.891a2.5,2.5,0,1,0,2.5,2.5A2.5,2.5,0,0,0,134.256,125.891Zm0,3.75a1.25,1.25,0,1,1,1.25-1.25A1.251,1.251,0,0,1,134.256,129.641Z" transform="translate(-131.756 -125.891)" fill="#fff"/>
      </g>
    </g>
    <g id="Group_6" data-name="Group 6" transform="translate(70.669 30.234)">
      <g id="Group_5" data-name="Group 5">
        <path id="Path_14" data-name="Path 14" d="M245.208,125.891a2.5,2.5,0,1,0,2.5,2.5A2.5,2.5,0,0,0,245.208,125.891Zm0,3.75a1.25,1.25,0,1,1,1.25-1.25A1.251,1.251,0,0,1,245.208,129.641Z" transform="translate(-242.708 -125.891)" fill="#fff"/>
      </g>
    </g>
    <g id="Group_8" data-name="Group 8" transform="translate(61.515 41.977)">
      <g id="Group_7" data-name="Group 7">
        <path id="Path_15" data-name="Path 15" d="M137.028,384.982a1.227,1.227,0,0,0-1.39.9,12.271,12.271,0,0,1-1.339,4.652.924.924,0,0,0,.594,1.342,1.547,1.547,0,0,0,.55.1,1.334,1.334,0,0,0,1.146-.569,13.686,13.686,0,0,0,1.578-5.326C138.237,385.529,137.727,385.037,137.028,384.982Z" transform="translate(-134.174 -384.977)" fill="#fff"/>
      </g>
    </g>
    <g id="Group_10" data-name="Group 10" transform="translate(64.486 39.528)">
      <g id="Group_9" data-name="Group 9">
        <path id="Path_16" data-name="Path 16" d="M148.169,357.634a.991.991,0,0,0-1,.981v.029a.991.991,0,0,0,.992.99h.008a.991.991,0,0,0,1-.974v-.044A.991.991,0,0,0,148.169,357.634Z" transform="translate(-147.169 -357.634)" fill="#fff"/>
      </g>
    </g>
    <g id="Group_12" data-name="Group 12" transform="translate(72.694 40.582)">
      <g id="Group_11" data-name="Group 11">
        <path id="Path_17" data-name="Path 17" d="M334.483,326.381c-1.917-2.488-2.031-7.967-2.032-8.034a.854.854,0,0,0-.921-.765.846.846,0,0,0-.9.786c0,.243.12,6,2.331,8.865a.958.958,0,0,0,.761.35,1.021,1.021,0,0,0,.5-.127A.709.709,0,0,0,334.483,326.381Z" transform="translate(-330.632 -317.582)" fill="#fff"/>
      </g>
    </g>
  </g>
</svg>
