<svg id="loupe" xmlns="http://www.w3.org/2000/svg" width="26" height="26" viewBox="0 0 26 26">
  <g id="Group_55" data-name="Group 55">
    <g id="Group_54" data-name="Group 54">
      <path id="Path_66" data-name="Path 66" d="M25.4,22.533l-6.778-6.778a10.065,10.065,0,0,0,1.686-5.6A10.156,10.156,0,1,0,10.156,20.313a10.066,10.066,0,0,0,5.6-1.686L17.628,20.5h0l4.9,4.9A2.031,2.031,0,1,0,25.4,22.533Zm-9.889-4.976h0a9.15,9.15,0,1,1,2.041-2.041A9.185,9.185,0,0,1,15.516,17.556Zm1.065.46a10.191,10.191,0,0,0,1.436-1.436l1.441,1.441a12.326,12.326,0,0,1-1.436,1.436Zm8.106,6.67a1.015,1.015,0,0,1-1.436,0l-4.509-4.509a13.344,13.344,0,0,0,1.436-1.436l4.509,4.509a1.015,1.015,0,0,1,0,1.436Z" fill="#fff"/>
    </g>
  </g>
  <g id="Group_57" data-name="Group 57" transform="translate(-36 -36)">
    <g id="Group_56" data-name="Group 56" transform="translate(40 40)">
      <path id="Path_67" data-name="Path 67" d="M46,40a6,6,0,1,0,6,6A6.007,6.007,0,0,0,46,40Zm0,11.25A5.25,5.25,0,1,1,51.25,46,5.256,5.256,0,0,1,46,51.25Z" transform="translate(-40 -40)" fill="#fff"/>
    </g>
  </g>
</svg>
